<svg width="42" height="41" viewBox="0 0 42 41" fill="none" xmlns="http://www.w3.org/2000/svg">
<path d="M7 19.5642V28.7002C7 30.6137 7 31.5712 7.38148 32.302C7.71703 32.9449 8.25208 33.4671 8.91064 33.7947C9.6586 34.1667 10.6382 34.1667 12.5946 34.1667H29.4054C31.3618 34.1667 32.34 34.1667 33.0879 33.7947C33.7465 33.4671 34.2833 32.9449 34.6189 32.302C35 31.5719 35 30.616 35 28.7062V19.5642C35 18.6513 34.9992 18.1947 34.8855 17.7699C34.7847 17.3935 34.6193 17.0373 34.3955 16.7154C34.1429 16.3521 33.7917 16.0509 33.088 15.4498L24.688 8.27481C23.3814 7.15878 22.7281 6.60105 21.9929 6.3888C21.3451 6.20178 20.6546 6.20178 20.0067 6.3888C19.2721 6.60089 18.6197 7.15809 17.3151 8.27243L8.91235 15.4498C8.20862 16.0509 7.85757 16.3521 7.60498 16.7154C7.38114 17.0373 7.21446 17.3935 7.1137 17.7699C7 18.1947 7 18.6513 7 19.5642Z" stroke="white" stroke-width="2" stroke-linecap="round" stroke-linejoin="round"/>
</svg>
